<svg width="55" height="50" viewBox="0 0 55 50" fill="none" xmlns="http://www.w3.org/2000/svg">
<path d="M27.5 29.1667C28.7156 29.1667 29.8814 28.7277 30.7409 27.9463C31.6005 27.1649 32.0833 26.1051 32.0833 25C32.0833 23.8949 31.6005 22.8351 30.7409 22.0537C29.8814 21.2723 28.7156 20.8333 27.5 20.8333C26.2844 20.8333 25.1186 21.2723 24.2591 22.0537C23.3996 22.8351 22.9167 23.8949 22.9167 25C22.9167 26.1051 23.3996 27.1649 24.2591 27.9463C25.1186 28.7277 26.2844 29.1667 27.5 29.1667ZM45.8333 37.5C48.7208 34.0208 50.4167 29.6875 50.4167 25C50.4167 20.3125 48.7208 15.9792 45.8333 12.5M9.16668 12.5C6.27918 15.9792 4.58334 20.3125 4.58334 25C4.58334 29.6875 6.27918 34.0208 9.16668 37.5M38.5 32.5C40.2188 30.4167 41.25 27.8125 41.25 25C41.25 22.1875 40.2188 19.5833 38.5 17.5M16.5 17.5C14.7813 19.5833 13.75 22.1875 13.75 25C13.75 27.8125 14.7813 30.4167 16.5 32.5" fill="#3C5722"/>
<path d="M45.8333 37.5C48.7208 34.0208 50.4167 29.6875 50.4167 25C50.4167 20.3125 48.7208 15.9792 45.8333 12.5M9.16668 12.5C6.27918 15.9792 4.58334 20.3125 4.58334 25C4.58334 29.6875 6.27918 34.0208 9.16668 37.5M38.5 32.5C40.2188 30.4167 41.25 27.8125 41.25 25C41.25 22.1875 40.2188 19.5833 38.5 17.5M16.5 17.5C14.7813 19.5833 13.75 22.1875 13.75 25C13.75 27.8125 14.7813 30.4167 16.5 32.5M27.5 29.1667C28.7156 29.1667 29.8814 28.7277 30.7409 27.9463C31.6005 27.1649 32.0833 26.1051 32.0833 25C32.0833 23.8949 31.6005 22.8351 30.7409 22.0537C29.8814 21.2723 28.7156 20.8333 27.5 20.8333C26.2844 20.8333 25.1186 21.2723 24.2591 22.0537C23.3996 22.8351 22.9167 23.8949 22.9167 25C22.9167 26.1051 23.3996 27.1649 24.2591 27.9463C25.1186 28.7277 26.2844 29.1667 27.5 29.1667Z" stroke="#3C5722" stroke-width="1.5" stroke-linecap="round" stroke-linejoin="round"/>
</svg>
