<svg width="55" height="50" viewBox="0 0 55 50" fill="none" xmlns="http://www.w3.org/2000/svg">
<path d="M21.7708 28.6458C21.7708 30.6667 23.4896 32.2917 25.5979 32.2917H29.9062C31.7396 32.2917 33.2291 30.875 33.2291 29.1042C33.2291 27.2083 32.3125 26.5208 30.9604 26.0833L24.0625 23.8958C22.7104 23.4583 21.7937 22.7917 21.7937 20.875C21.7937 19.125 23.2833 17.6875 25.1166 17.6875H29.425C31.5333 17.6875 33.2521 19.3125 33.2521 21.3333M27.5 15.625V34.375" stroke="#3C5722" stroke-width="1.5" stroke-linecap="round" stroke-linejoin="round"/>
<path d="M50.4166 25.0001C50.4166 36.5001 40.15 45.8334 27.5 45.8334C14.85 45.8334 4.58331 36.5001 4.58331 25.0001C4.58331 13.5001 14.85 4.16675 27.5 4.16675" stroke="black" stroke-width="1.5" stroke-linecap="round" stroke-linejoin="round"/>
<path d="M38.9583 6.25008V14.5834M38.9583 14.5834H48.125M38.9583 14.5834L50.4166 4.16675" stroke="black" stroke-width="1.5" stroke-linecap="round" stroke-linejoin="round"/>
</svg>
