<svg width="77" height="50" viewBox="0 0 77 50" fill="none" xmlns="http://www.w3.org/2000/svg">
<path d="M60.8621 45.8334H15.9454C6.3204 45.8334 6.3204 43.0209 6.3204 39.5834V37.5001C6.3204 36.3543 7.76415 35.4167 9.52874 35.4167H67.2787C69.0433 35.4167 70.4871 36.3543 70.4871 37.5001V39.5834C70.4871 43.0209 70.4871 45.8334 60.8621 45.8334ZM66.4767 27.0834V35.4167H10.4912V27.0834C10.4921 22.6633 13.1965 18.4244 18.0098 15.2989C22.823 12.1734 29.3509 10.4173 36.1579 10.4167H40.81C42.6708 10.4167 44.4996 10.5417 46.2321 10.7917C57.8142 12.4167 66.4767 19.0834 66.4767 27.0834Z" stroke="black" stroke-width="1.5" stroke-linecap="round" stroke-linejoin="round"/>
<path d="M48.125 22.9167H28.875M46.5208 9.37508C46.5208 9.87508 46.4246 10.3334 46.2321 10.7917C44.4996 10.5417 42.6708 10.4167 40.81 10.4167H36.1579C34.2971 10.4167 32.5004 10.5417 30.7679 10.7917C30.5754 10.3334 30.4792 9.87508 30.4792 9.37508C30.4792 7.99375 31.3242 6.66899 32.8284 5.69223C34.3326 4.71548 36.3727 4.16675 38.5 4.16675C40.6273 4.16675 42.6674 4.71548 44.1716 5.69223C45.6758 6.66899 46.5208 7.99375 46.5208 9.37508Z" stroke="#3C5722" stroke-width="1.5" stroke-linecap="round" stroke-linejoin="round"/>
</svg>
