<svg width="71" height="50" viewBox="0 0 71 50" fill="none" xmlns="http://www.w3.org/2000/svg">
<path d="M59.1667 7.29175H16.2708C15.3833 7.29175 14.4958 7.50008 13.9042 8.12508L9.46667 12.2917C9.13703 12.6013 8.93629 12.9693 8.88696 13.3547C8.83762 13.74 8.94162 14.1274 9.18732 14.4734C9.43302 14.8195 9.8107 15.1105 10.278 15.3139C10.7454 15.5173 11.2839 15.6251 11.8333 15.6251H54.7292C55.6167 15.6251 56.5042 15.4167 57.0958 14.7917L61.5333 10.6251C61.863 10.3156 62.0637 9.94751 62.113 9.56218C62.1624 9.17684 62.0584 8.78944 61.8127 8.44339C61.567 8.09733 61.1893 7.8063 60.722 7.60289C60.2546 7.39949 59.7161 7.29175 59.1667 7.29175ZM11.8333 20.8334H54.7292C55.6167 20.8334 56.5042 21.0417 57.0958 21.6667L61.5333 25.8334C61.863 26.1429 62.0637 26.511 62.113 26.8963C62.1624 27.2817 62.0584 27.6691 61.8127 28.0151C61.567 28.3612 61.1893 28.6522 60.722 28.8556C60.2546 29.059 59.7161 29.1667 59.1667 29.1667H16.2708C15.3833 29.1667 14.4958 28.9584 13.9042 28.3334L9.46667 24.1667C9.13703 23.8572 8.93629 23.4892 8.88696 23.1038C8.83762 22.7185 8.94162 22.3311 9.18732 21.9851C9.43302 21.639 9.8107 21.348 10.278 21.1446C10.7454 20.9412 11.2839 20.8334 11.8333 20.8334ZM59.1667 34.3751H16.2708C15.3833 34.3751 14.4958 34.5834 13.9042 35.2084L9.46667 39.3751C9.13703 39.6846 8.93629 40.0527 8.88696 40.438C8.83762 40.8233 8.94162 41.2107 9.18732 41.5568C9.43302 41.9028 9.8107 42.1939 10.278 42.3973C10.7454 42.6007 11.2839 42.7084 11.8333 42.7084H54.7292C55.6167 42.7084 56.5042 42.5001 57.0958 41.8751L61.5333 37.7084C61.863 37.3989 62.0637 37.0308 62.113 36.6455C62.1624 36.2602 62.0584 35.8728 61.8127 35.5267C61.567 35.1807 61.1893 34.8896 60.722 34.6862C60.2546 34.4828 59.7161 34.3751 59.1667 34.3751Z" fill="#3C5722" stroke="#3C5722" stroke-width="1.5" stroke-miterlimit="10"/>
</svg>
