<svg width="54" height="50" viewBox="0 0 54 50" fill="none" xmlns="http://www.w3.org/2000/svg">
<path d="M45 7.29175H12.375C11.7 7.29175 11.025 7.50008 10.575 8.12508L7.2 12.2917C6.94929 12.6013 6.79662 12.9693 6.75909 13.3547C6.72157 13.74 6.80067 14.1274 6.98754 14.4734C7.17441 14.8195 7.46166 15.1105 7.81711 15.3139C8.17255 15.5173 8.58215 15.6251 9 15.6251H41.625C42.3 15.6251 42.975 15.4167 43.425 14.7917L46.8 10.6251C47.0507 10.3156 47.2034 9.94751 47.2409 9.56218C47.2784 9.17684 47.1993 8.78944 47.0125 8.44339C46.8256 8.09733 46.5383 7.8063 46.1829 7.60289C45.8275 7.39949 45.4179 7.29175 45 7.29175ZM9 20.8334H41.625C42.3 20.8334 42.975 21.0417 43.425 21.6667L46.8 25.8334C47.0507 26.1429 47.2034 26.511 47.2409 26.8963C47.2784 27.2817 47.1993 27.6691 47.0125 28.0151C46.8256 28.3612 46.5383 28.6522 46.1829 28.8556C45.8275 29.059 45.4179 29.1667 45 29.1667H12.375C11.7 29.1667 11.025 28.9584 10.575 28.3334L7.2 24.1667C6.94929 23.8572 6.79662 23.4892 6.75909 23.1038C6.72157 22.7185 6.80067 22.3311 6.98754 21.9851C7.17441 21.639 7.46166 21.348 7.81711 21.1446C8.17255 20.9412 8.58215 20.8334 9 20.8334ZM45 34.3751H12.375C11.7 34.3751 11.025 34.5834 10.575 35.2084L7.2 39.3751C6.94929 39.6846 6.79662 40.0527 6.75909 40.438C6.72157 40.8233 6.80067 41.2107 6.98754 41.5568C7.17441 41.9028 7.46166 42.1939 7.81711 42.3973C8.17255 42.6007 8.58215 42.7084 9 42.7084H41.625C42.3 42.7084 42.975 42.5001 43.425 41.8751L46.8 37.7084C47.0507 37.3989 47.2034 37.0308 47.2409 36.6455C47.2784 36.2602 47.1993 35.8728 47.0125 35.5267C46.8256 35.1807 46.5383 34.8896 46.1829 34.6862C45.8275 34.4828 45.4179 34.3751 45 34.3751Z" stroke="#0D0D0D" stroke-width="1.5" stroke-miterlimit="10"/>
</svg>
